<?xml version="1.0" encoding="UTF-8" standalone="no"?>
<!-- Created with Inkscape (http://www.inkscape.org/) -->

<svg
   xmlns:dc="http://purl.org/dc/elements/1.1/"
   xmlns:cc="http://creativecommons.org/ns#"
   xmlns:rdf="http://www.w3.org/1999/02/22-rdf-syntax-ns#"
   xmlns:svg="http://www.w3.org/2000/svg"
   xmlns="http://www.w3.org/2000/svg"
   xmlns:sodipodi="http://sodipodi.sourceforge.net/DTD/sodipodi-0.dtd"
   xmlns:inkscape="http://www.inkscape.org/namespaces/inkscape"
   version="1.1"
   id="svg2"
   xml:space="preserve"
   width="350"
   height="350"
   viewBox="0 0 350.00001 349.99999"
   sodipodi:docname="logo.svg"
   inkscape:version="0.92.5 (2060ec1f9f, 2020-04-08)"><metadata
     id="metadata8"><rdf:RDF><cc:Work
         rdf:about=""><dc:format>image/svg+xml</dc:format><dc:type
           rdf:resource="http://purl.org/dc/dcmitype/StillImage" /><dc:title></dc:title></cc:Work></rdf:RDF></metadata><defs
     id="defs6" /><sodipodi:namedview
     pagecolor="#ffffff"
     bordercolor="#666666"
     borderopacity="1"
     objecttolerance="10"
     gridtolerance="10"
     guidetolerance="10"
     inkscape:pageopacity="0"
     inkscape:pageshadow="2"
     inkscape:window-width="2488"
     inkscape:window-height="1016"
     id="namedview4"
     showgrid="false"
     fit-margin-top="0"
     fit-margin-left="0"
     fit-margin-right="0"
     fit-margin-bottom="0"
     inkscape:zoom="0.86368042"
     inkscape:cx="214.41584"
     inkscape:cy="-114.23219"
     inkscape:window-x="72"
     inkscape:window-y="27"
     inkscape:window-maximized="1"
     inkscape:current-layer="g10" /><g
     id="g10"
     inkscape:groupmode="layer"
     inkscape:label="ink_ext_XXXXXX"
     transform="matrix(1.3333333,0,0,-1.3333333,-952.02924,1029.5064)"><path
       inkscape:connector-curvature="0"
       id="path20"
       style="fill:#43b1ca;fill-opacity:1;fill-rule:nonzero;stroke:none;stroke-width:0.1"
       d="m 791.97993,668.1838 c 0.037,-1.122 -0.555,-2.168 -1.591,-2.6 l -0.263,-0.109 c -1.66,-0.693 -3.509,0.469 -3.598,2.266 -0.231,4.622 2.409,11.961 17.013,19.797 8.529,4.576 17.182,1.769 24.135,-0.488 7.353,-2.386 11.679,-3.565 15.086,-0.027 6.52,6.771 15.692,6.771 23.062,6.771 4.459,0 8.671,0 11.277,1.422 5.106,2.785 9.969,15.241 11.835,22.438 0.579,2.231 3.482,2.799 4.859,0.951 v 0 c 0.583,-0.782 13.158,-17.919 5.547,-28.672 -1.025,-1.447 -3.159,-1.505 -4.313,-0.159 v 0 c -0.796,0.929 -0.921,2.291 -0.227,3.298 3.279,4.761 0.305,12.322 -2.362,17.287 -2.282,-6.607 -6.611,-16.637 -12.71,-19.964 -3.836,-2.092 -8.727,-2.092 -13.906,-2.092 -6.985,0 -14.207,0 -19.107,-5.089 -5.955,-6.183 -13.469,-3.745 -20.736,-1.387 -6.577,2.134 -13.379,4.341 -19.844,0.872 -9.206,-4.94 -14.299,-10.22 -14.157,-14.515 z m -12.206,34.935 c -2.105,-2.488 -1.521,-6.143 -1.515,-6.18 l 0.003,-0.015 c 0.448,-2.667 -2.823,-4.308 -4.693,-2.354 -0.014,0.015 -2.528,2.549 -5.305,2.317 -1.649,-0.139 -3.24,-1.299 -4.727,-3.448 -1.187,-1.713 -1.007,-2.816 -0.769,-3.496 0.94,-2.684 5.363,-5.127 8.694,-6.487 1.295,-0.528 1.987,-1.941 1.585,-3.28 l -0.029,-0.097 c -0.455,-1.517 -2.11,-2.321 -3.58,-1.732 -3.762,1.51 -10.08,4.722 -11.852,9.781 -0.675,1.927 -0.974,4.956 1.436,8.437 2.48,3.582 5.453,5.533 8.837,5.799 1.949,0.151 3.715,-0.287 5.191,-0.926 0.374,1.68 1.107,3.52 2.483,5.169 2.594,3.108 6.666,4.684 12.102,4.684 10.259,0 15.867,-3.874 18.59,-6.696 1.279,-1.325 0.894,-3.512 -0.753,-4.335 -1.076,-0.538 -2.367,-0.304 -3.202,0.561 -1.867,1.935 -7.182,6.535 -14.635,4.979 -3.633,-0.758 -6.356,-0.902 -7.861,-2.681 z m 21.475,-39.383 c -0.891,1.327 -0.477,3.156 0.962,3.948 1.264,0.696 2.858,0.223 3.662,-0.974 0.897,-1.332 1.819,-2.777 2.661,-4.3 3.682,1.582 9.614,3.491 16.804,3.491 9.244,0 17.532,-2.071 20.776,-2.998 2.883,2.135 10.569,6.978 21.402,7.366 2.23,2.561 8.514,7.7 23.403,8.417 1.99,1 10.864,6.011 13.76,17.015 1.564,5.941 4.738,10.292 8.401,13.329 3.668,3.042 3.084,8.819 -1.11,11.08 -0.894,0.481 -1.8,0.965 -2.716,1.453 -5.601,2.988 -11.393,6.077 -17.077,10.202 -0.125,0.091 -0.254,0.176 -0.381,0.266 l 0.271,-0.494 c -5.102,-0.684 -19.302,-3.695 -23.679,-9.342 -1.4,-1.806 -2.972,-3.393 -4.491,-4.927 -5.372,-5.424 -8.921,-9.008 -3.455,-18.327 1.08,-1.841 -0.234,-4.16 -2.369,-4.151 l -17.507,0.067 c -1.605,0.006 -2.883,1.389 -2.72,3.026 0.141,1.427 1.426,2.47 2.86,2.465 l 9.234,-0.036 c 1.755,-0.007 3.058,1.613 2.69,3.328 -1.775,8.264 3.197,13.282 7.366,17.491 1.404,1.419 2.856,2.885 4.051,4.427 3.541,4.569 10.014,7.374 15.54,9.03 1.894,0.567 2.037,3.207 0.206,3.953 -4.004,1.632 -8.172,2.896 -12.386,3.877 -1.757,0.41 -3.558,-0.485 -4.307,-2.126 -1.669,-3.652 -4.522,-8.493 -8.785,-11.335 -1.058,-0.705 -2.155,-1.39 -3.317,-2.114 -5.864,-3.658 -12.511,-7.804 -14.989,-15.649 -2.29,-7.251 -4.78,-14.57 -6.079,-18.339 -0.523,-1.52 -2.247,-2.28 -3.744,-1.597 -1.302,0.595 -1.876,2.141 -1.409,3.494 1.298,3.769 3.745,10.967 5.996,18.096 0.116,0.367 0.252,0.713 0.381,1.066 l -5.703,9.76 c -0.81,1.386 -0.268,3.189 1.225,3.881 1.301,0.602 2.852,0.025 3.575,-1.213 l 3.892,-6.66 c 3.812,5.484 9.295,8.917 13.949,11.819 1.126,0.702 2.189,1.365 3.177,2.024 1.94,1.294 3.581,3.306 4.89,5.407 1.489,2.388 0.003,5.521 -2.793,5.833 -4.964,0.554 -9.805,0.848 -14.319,1.029 0,0 -0.018,10e-4 -0.027,10e-4 -1.464,0.058 -2.756,-0.947 -3.075,-2.377 -0.859,-3.843 -2.963,-8.703 -8.035,-11.931 l -0.386,-0.246 c -9.12,-5.799 -14.479,-9.931 -11.997,-18.384 2.204,-7.512 1.395,-12.967 0.382,-16.148 -0.557,-1.745 -2.639,-2.455 -4.15,-1.418 -0.998,0.685 -1.402,1.988 -1.035,3.143 0.716,2.262 1.389,6.558 -0.466,12.876 -3.824,13.027 6.236,19.425 14.32,24.565 l 0.384,0.244 c 2.273,1.447 3.699,3.413 4.592,5.372 0.928,2.039 -0.671,4.348 -2.91,4.255 -7.381,-0.304 -15.135,-1.046 -23.321,-1.99 -0.676,-0.078 -1.263,-0.509 -1.53,-1.135 -0.999,-2.338 -2.191,-6.968 0.126,-13.047 0.558,-1.463 -0.264,-3.133 -1.836,-3.585 -1.383,-0.398 -2.841,0.42 -3.349,1.768 -1.885,5.009 -1.896,9.328 -1.286,12.642 0.225,1.225 -0.83,2.309 -2.067,2.154 l -0.281,-0.035 c -6.151,-0.769 -11.368,-3.047 -15.909,-5.801 -0.644,-0.39 -0.991,-1.124 -0.885,-1.87 0.814,-5.728 2.951,-11.882 6.262,-14.366 4.243,-3.182 13.251,-1.706 18.439,-0.329 1.398,0.371 2.843,-0.4 3.308,-1.769 h 10e-4 c 0.512,-1.505 -0.353,-3.126 -1.888,-3.54 -2.867,-0.772 -8.332,-2.069 -12.963,-2.07 -4.01,0 -7.171,1.05 -10.192,3.316 -4.452,3.339 -6.465,8.912 -7.365,13.648 -0.262,1.379 -1.893,1.985 -2.998,1.119 -0.616,-0.482 -1.218,-0.959 -1.806,-1.426 -3.253,-2.581 -6.062,-4.811 -8.841,-6.152 l -0.022,-0.011 c -1.108,-0.537 -1.376,-1.995 -0.531,-2.891 l 10.269,-10.877 c 1.102,-1.168 0.982,-3.047 -0.316,-4.057 -1.131,-0.881 -2.773,-0.67 -3.757,0.373 l -9.694,10.268 c -0.854,0.905 -2.334,0.732 -2.965,-0.34 -0.719,-1.223 -1.414,-2.512 -2.119,-3.822 -1.795,-3.334 -3.652,-6.783 -6.195,-9.673 -3.871,-4.398 -5.737,-15.412 -0.535,-28.294 0.643,-1.591 2.599,-2.226 4.034,-1.286 3.77,2.472 9.543,4.465 17.86,3.079 9.632,-1.606 15.325,0.768 17.897,2.36 1.211,0.75 2.829,0.431 3.678,-0.793 0.917,-1.323 0.446,-3.107 -0.933,-3.938 -2.742,-1.655 -7.509,-3.648 -14.561,-3.648 -2.12,0 -4.443,0.179 -6.983,0.603 -7.387,1.232 -12.103,-0.813 -14.848,-2.895 -1.171,-0.89 -1.441,-2.534 -0.617,-3.753 0.136,-0.202 0.275,-0.403 0.415,-0.605 11.682,-16.762 38.764,-18.033 39.036,-18.044 l 3.183,-0.128 -0.59,-3.11 c -0.062,-0.376 -0.847,-5.846 4.301,-11.763 0.996,-1.144 2.875,-0.412 2.867,1.104 -0.028,4.764 1.241,10.118 5.823,14.153 5.863,5.164 3.297,10.999 -1.711,18.446" /><path
       inkscape:connector-curvature="0"
       id="path22"
       style="fill:#43b1ca;fill-opacity:1;fill-rule:nonzero;stroke:none;stroke-width:0.1"
       d="m 951.39293,648.4638 -0.038,-0.026 c -1.084,-0.748 -2.281,-1.126 -3.538,-1.126 -0.793,0 -1.609,0.15 -2.437,0.451 -6.861,2.495 -16.36,12.175 -20.463,16.607 -1.05,1.135 -0.96,2.911 0.202,3.932 1.117,0.981 2.809,0.898 3.821,-0.19 4.511,-4.851 13.079,-13.284 18.317,-15.189 0.609,-0.221 0.815,-0.08 0.979,0.034 1.956,1.348 5.896,4.708 3.623,13.592 -1.908,5.94 -4.761,10.691 -8.041,16.147 -0.763,1.27 -1.555,2.588 -2.361,3.969 -0.988,1.693 -3.148,2.283 -4.857,1.325 -5.545,-3.106 -13.377,-6.967 -18.779,-7.437 -0.384,-0.033 -0.68,-0.076 -0.904,-0.118 0.206,-0.575 0.558,-1.358 0.84,-1.985 1.238,-2.748 2.932,-6.512 2.563,-11.121 -0.168,-2.099 -1.182,-3.896 -2.934,-5.196 -2.715,-2.015 -7.103,-2.65 -11.557,-2.65 -4.486,0 -9.039,0.645 -12.014,1.172 -1.596,0.283 -2.617,1.881 -2.165,3.466 0.391,1.371 1.823,2.169 3.227,1.927 6.99,-1.202 16.244,-1.728 19.237,0.495 0.593,0.44 0.703,0.848 0.733,1.224 0.256,3.203 -0.994,5.98 -2.097,8.429 -1.139,2.533 -2.216,4.924 -0.896,7.174 1.205,2.055 3.711,2.498 5.492,2.653 4.341,0.378 11.486,3.89 16.918,6.951 1.62,0.913 2.259,2.913 1.494,4.608 -0.188,0.418 -0.375,0.841 -0.561,1.271 -1.208,2.791 -2.693,5.209 -4.408,7.356 -1.799,2.253 -4.782,3.141 -7.515,2.221 -4.781,-1.61 -11.051,-5.638 -13.285,-14.127 -3.958,-15.04 -16.779,-20.632 -17.323,-20.863 l -0.462,-0.196 -0.5,-0.02 c -14.516,-0.581 -19.401,-5.754 -20.293,-6.875 -0.097,-0.122 -0.177,-0.252 -0.247,-0.392 -0.389,-0.785 -1.254,-1.219 -2.128,-1.163 l -0.049,0.003 c -0.059,0.004 -0.119,0.006 -0.178,0.005 -12.21,-0.033 -20.22,-6.93 -20.3,-7 -0.731,-0.641 -1.745,-0.85 -2.67,-0.55 l -0.004,10e-4 c -0.095,0.031 -9.754,3.157 -20.497,3.157 -6.194,0 -11.37,-1.667 -14.545,-3.016 1.796,-5.334 1.592,-11.12 -4.204,-16.224 -4.294,-3.781 -4.314,-9.69 -3.582,-13.967 0.469,-2.744 2.41,-5.02 5.061,-5.868 5.419,-1.735 11.008,-2.165 15.595,-2.095 0.276,0.489 0.346,0.611 0.623,1.1 -2.53,4.37 -5.146,10.647 -3.664,16.237 1.051,3.964 3.906,6.871 8.485,8.64 9.653,3.73 17.486,3.478 23.78,3.274 4.568,-0.147 8.177,-0.263 11.256,1.076 2.292,0.996 4.13,2.318 6.076,3.718 4.646,3.342 9.911,7.131 21.635,6.014 1.482,-0.141 2.854,-0.258 4.133,-0.367 12.088,-1.032 17.091,-1.459 26.086,-15.133 5.935,-9.021 15.085,-7.949 19.288,-6.849 1.408,0.368 2.873,-0.429 3.322,-1.848 0.483,-1.527 -0.517,-3.129 -2.068,-3.53 -6.946,-1.796 -18.088,-1.493 -25.129,9.209 -7.531,11.448 -10.302,11.684 -21.966,12.68 -1.295,0.111 -2.686,0.229 -4.187,0.372 -9.668,0.92 -13.487,-1.825 -17.907,-5.005 -2.096,-1.507 -4.262,-3.066 -7.094,-4.297 -4.211,-1.831 -8.783,-1.682 -13.622,-1.528 -6.099,0.196 -13.012,0.42 -21.624,-2.908 -2.884,-1.114 -4.57,-2.723 -5.155,-4.919 -1.284,-4.824 2.683,-11.785 5.234,-15.37 v 0 c 1.68,0.231 2.686,0.446 2.729,0.456 v 0 c 1.333,0.666 2.924,-0.142 3.188,-1.609 1.922,-10.668 6.776,-16.915 10.916,-20.433 0.955,-0.451 9.71,-4.309 17.751,1.945 2.948,2.293 5.88,5.254 8.716,8.118 6.744,6.809 13.718,13.85 22.814,14.418 6.397,0.396 13.326,-2.382 19.012,-7.631 4.18,-3.858 7.038,-8.564 8.038,-13.081 0.372,-1.678 -0.928,-3.264 -2.646,-3.264 v 0 c -1.317,0 -2.443,0.918 -2.732,2.201 -0.763,3.379 -3.038,7.02 -6.384,10.11 -4.523,4.175 -10.109,6.488 -14.945,6.185 -7.01,-0.438 -12.958,-6.444 -19.255,-12.802 -2.959,-2.988 -6.019,-6.077 -9.247,-8.588 -4.222,-3.284 -8.572,-4.466 -12.375,-4.659 0.185,-4.412 4.056,-9.305 8.16,-14.479 0.923,-1.163 1.877,-2.366 2.793,-3.573 4.51,-5.934 7.628,-28.329 8.822,-38.313 0.169,-1.411 1.319,-2.498 2.737,-2.588 l 0.072,-0.005 c 2.018,-0.129 3.556,1.777 3,3.721 -0.38,1.331 -0.815,2.744 -1.195,3.979 -1.654,5.379 -3.53,11.476 -3.812,16.568 -0.443,7.969 5.258,12.497 12.745,15.655 1.322,0.558 1.813,2.179 1.022,3.377 l -0.018,0.027 c -1.248,1.895 -2.613,4.271 -3.797,7.037 -3.768,8.802 -4.08,17.782 -0.942,26.149 0.575,1.533 2.381,2.213 3.845,1.445 1.242,-0.652 1.734,-2.188 1.247,-3.504 -5.137,-13.9 2.464,-25.973 5.913,-30.462 0.561,-0.73 1.513,-1.032 2.397,-0.774 1.346,0.392 2.694,0.77 4.023,1.142 12.708,3.558 22.882,16.165 31.158,28.028 l 0.66,0.945 c 0.247,0.353 0.498,0.712 0.753,1.077 1.136,1.631 -0.032,3.867 -2.02,3.866 h -0.055 c -4.074,0 -8.471,0.989 -12.46,3.98 l -0.908,0.682 c -9.422,7.074 -29.032,21.789 -40.107,21.124 -2.278,-0.138 -5.158,-0.878 -8.236,-1.939 -0.274,-0.094 -0.498,-0.3 -0.617,-0.564 l -8.53,-18.96 c -0.67,-1.458 -2.457,-2.05 -3.88,-1.225 -1.24,0.719 -1.659,2.32 -1.061,3.624 l 5.282,11.506 c 0.408,0.889 -0.517,1.804 -1.402,1.387 -5.143,-2.422 -9.598,-4.894 -11.396,-6.053 -1.219,-0.785 -2.837,-0.495 -3.702,0.67 -0.946,1.274 -0.623,3.081 0.709,3.944 4.451,2.882 22.556,12.489 32.501,13.091 13.103,0.793 32.276,-13.61 43.736,-22.214 l 0.905,-0.68 c 5.944,-4.457 13.555,-2.78 17.848,-1.235 0.53,0.191 0.973,0.561 1.258,1.047 4.794,8.17 9.064,17.764 9.929,28.231 0.12,1.459 -1.527,2.395 -2.729,1.558" /></g></svg>